# xmcd
#
# Track frame offsets:
#	200
#	11017
#	22045
#	34145
#	41042
#	49595
#	59832
#	71762
#	82422
#	93047
#	101685
#	111310
#	119952
#	130430
#
# Disc length: 1874 seconds
#
# Revision: 1
# Processed by: cddbd v1.5.1PL2 Copyright (c) Steve Scherf et al.
# Submitted via: audiograbber 1.83.01
#
DISCID=d507500e
DTITLE=Waylon Jennings - Country Heaven
DYEAR=1900
DGENRE=Country
TTITLE0=Sally Was A Good Old Girl
TTITLE1=Big Mamou
TTITLE2=Don't Think Twice, It's Alright
TTITLE3=It's So Easy
TTITLE4=Love's Gonna Live Here Again
TTITLE5=White Lightnin'
TTITLE6=Crying
TTITLE7=Burning Memories
TTITLE8=Dream Baby
TTITLE9=Albilene
TTITLE10=When Sin Stops
TTITLE11=Jole Blon
TTITLE12=Money
TTITLE13=Lorena
EXTD=
EXTT0=
EXTT1=
EXTT2=
EXTT3=
EXTT4=
EXTT5=
EXTT6=
EXTT7=
EXTT8=
EXTT9=
EXTT10=
EXTT11=
EXTT12=
EXTT13=
PLAYORDER=
